vertices
86
normals
99
textures
118
faces
168

v  0.0000 0.0000 1.0000
v  -0.0000 0.4339 0.9010
v  -0.1883 0.3909 0.9010
v  -0.3392 0.2705 0.9010
v  -0.4230 0.0965 0.9010
v  -0.4230 -0.0965 0.9010
v  -0.3392 -0.2705 0.9010
v  -0.1883 -0.3909 0.9010
v  0.0000 -0.4339 0.9010
v  0.1883 -0.3909 0.9010
v  0.3392 -0.2705 0.9010
v  0.4230 -0.0965 0.9010
v  0.4230 0.0965 0.9010
v  0.3392 0.2705 0.9010
v  0.1883 0.3909 0.9010
v  -0.0000 0.7818 0.6235
v  -0.3392 0.7044 0.6235
v  -0.6113 0.4875 0.6235
v  -0.7622 0.1740 0.6235
v  -0.7622 -0.1740 0.6235
v  -0.6113 -0.4875 0.6235
v  -0.3392 -0.7044 0.6235
v  0.0000 -0.7818 0.6235
v  0.3392 -0.7044 0.6235
v  0.6113 -0.4875 0.6235
v  0.7622 -0.1740 0.6235
v  0.7622 0.1740 0.6235
v  0.6113 0.4875 0.6235
v  0.3392 0.7044 0.6235
v  -0.0000 0.9749 0.2225
v  -0.4230 0.8784 0.2225
v  -0.7622 0.6079 0.2225
v  -0.9505 0.2169 0.2225
v  -0.9505 -0.2169 0.2225
v  -0.7622 -0.6079 0.2225
v  -0.4230 -0.8784 0.2225
v  0.0000 -0.9749 0.2225
v  0.4230 -0.8784 0.2225
v  0.7622 -0.6079 0.2225
v  0.9505 -0.2169 0.2225
v  0.9505 0.2169 0.2225
v  0.7622 0.6079 0.2225
v  0.4230 0.8784 0.2225
v  -0.0000 0.9749 -0.2225
v  -0.4230 0.8784 -0.2225
v  -0.7622 0.6079 -0.2225
v  -0.9505 0.2169 -0.2225
v  -0.9505 -0.2169 -0.2225
v  -0.7622 -0.6079 -0.2225
v  -0.4230 -0.8784 -0.2225
v  0.0000 -0.9749 -0.2225
v  0.4230 -0.8784 -0.2225
v  0.7622 -0.6079 -0.2225
v  0.9505 -0.2169 -0.2225
v  0.9505 0.2169 -0.2225
v  0.7622 0.6079 -0.2225
v  0.4230 0.8784 -0.2225
v  -0.0000 0.7818 -0.6235
v  -0.3392 0.7044 -0.6235
v  -0.6113 0.4875 -0.6235
v  -0.7622 0.1740 -0.6235
v  -0.7622 -0.1740 -0.6235
v  -0.6113 -0.4875 -0.6235
v  -0.3392 -0.7044 -0.6235
v  0.0000 -0.7818 -0.6235
v  0.3392 -0.7044 -0.6235
v  0.6113 -0.4875 -0.6235
v  0.7622 -0.1740 -0.6235
v  0.7622 0.1740 -0.6235
v  0.6113 0.4875 -0.6235
v  0.3392 0.7044 -0.6235
v  -0.0000 0.4339 -0.9010
v  -0.1883 0.3909 -0.9010
v  -0.3392 0.2705 -0.9010
v  -0.4230 0.0965 -0.9010
v  -0.4230 -0.0965 -0.9010
v  -0.3392 -0.2705 -0.9010
v  -0.1883 -0.3909 -0.9010
v  0.0000 -0.4339 -0.9010
v  0.1883 -0.3909 -0.9010
v  0.3392 -0.2705 -0.9010
v  0.4230 -0.0965 -0.9010
v  0.4230 0.0965 -0.9010
v  0.3392 0.2705 -0.9010
v  0.1883 0.3909 -0.9010
v  0.0000 0.0000 -1.0000

vn -0.0507 0.2222 0.9737
vn -0.1421 0.1782 0.9737
vn -0.2054 0.0989 0.9737
vn -0.2279 0.0000 0.9737
vn -0.2054 -0.0989 0.9737
vn -0.1421 -0.1782 0.9737
vn -0.0507 -0.2222 0.9737
vn 0.0507 -0.2222 0.9737
vn 0.1421 -0.1782 0.9737
vn 0.2054 -0.0989 0.9737
vn 0.2279 0.0000 0.9737
vn 0.2054 0.0989 0.9737
vn 0.1421 0.1782 0.9737
vn 0.0507 0.2222 0.9737
vn -0.1409 0.6173 0.7740
vn -0.3948 0.4950 0.7740
vn -0.5704 0.2747 0.7740
vn -0.6331 0.0000 0.7740
vn -0.5704 -0.2747 0.7740
vn -0.3948 -0.4950 0.7740
vn -0.1409 -0.6173 0.7740
vn 0.1409 -0.6173 0.7740
vn 0.3948 -0.4950 0.7740
vn 0.5704 -0.2747 0.7740
vn 0.6331 0.0000 0.7740
vn 0.5704 0.2747 0.7740
vn 0.3948 0.4950 0.7740
vn 0.1409 0.6173 0.7740
vn -0.2014 0.8825 0.4250
vn -0.5644 0.7077 0.4250
vn -0.8156 0.3928 0.4250
vn -0.9052 0.0000 0.4250
vn -0.8156 -0.3928 0.4250
vn -0.5644 -0.7077 0.4250
vn -0.2014 -0.8825 0.4250
vn 0.2014 -0.8825 0.4250
vn 0.5644 -0.7077 0.4250
vn 0.8156 -0.3928 0.4250
vn 0.8156 -0.3927 0.4250
vn 0.9052 0.0000 0.4250
vn 0.8156 0.3928 0.4250
vn 0.5644 0.7077 0.4250
vn 0.2014 0.8825 0.4250
vn -0.2225 0.9749 0.0000
vn -0.6235 0.7818 0.0000
vn -0.9010 0.4339 0.0000
vn -1.0000 0.0000 0.0000
vn -0.9010 -0.4339 0.0000
vn -0.6235 -0.7818 0.0000
vn -0.2225 -0.9749 0.0000
vn 0.2225 -0.9749 0.0000
vn 0.6235 -0.7818 0.0000
vn 0.9010 -0.4339 0.0000
vn 1.0000 0.0000 0.0000
vn 0.9010 0.4339 0.0000
vn 0.6235 0.7818 0.0000
vn 0.2225 0.9749 0.0000
vn -0.2014 0.8825 -0.4250
vn -0.5644 0.7077 -0.4250
vn -0.8156 0.3928 -0.4250
vn -0.9052 0.0000 -0.4250
vn -0.8156 -0.3928 -0.4250
vn -0.5644 -0.7077 -0.4250
vn -0.2014 -0.8825 -0.4250
vn 0.2014 -0.8825 -0.4250
vn 0.5644 -0.7077 -0.4250
vn 0.8156 -0.3928 -0.4250
vn 0.9052 0.0000 -0.4250
vn 0.8156 0.3928 -0.4250
vn 0.5644 0.7077 -0.4250
vn 0.2014 0.8825 -0.4250
vn -0.1409 0.6173 -0.7740
vn -0.3948 0.4950 -0.7740
vn -0.5704 0.2747 -0.7740
vn -0.6331 0.0000 -0.7740
vn -0.5704 -0.2747 -0.7740
vn -0.3948 -0.4950 -0.7740
vn -0.1409 -0.6173 -0.7740
vn 0.1409 -0.6173 -0.7740
vn 0.3948 -0.4950 -0.7740
vn 0.5704 -0.2747 -0.7740
vn 0.6331 0.0000 -0.7740
vn 0.5704 0.2747 -0.7740
vn 0.3948 0.4950 -0.7740
vn 0.1409 0.6173 -0.7740
vn -0.0507 0.2222 -0.9737
vn -0.1421 0.1782 -0.9737
vn -0.2054 0.0989 -0.9737
vn -0.2279 0.0000 -0.9737
vn -0.2054 -0.0989 -0.9737
vn -0.1421 -0.1782 -0.9737
vn -0.0507 -0.2222 -0.9737
vn 0.0507 -0.2222 -0.9737
vn 0.1421 -0.1782 -0.9737
vn 0.2054 -0.0989 -0.9737
vn 0.2279 0.0000 -0.9737
vn 0.2054 0.0989 -0.9737
vn 0.1421 0.1782 -0.9737
vn 0.0507 0.2222 -0.9737

vt 0.0000 1.0000 0.0000
vt 0.0000 0.8571 0.0000
vt 0.0714 0.8571 0.0000
vt 0.0714 1.0000 0.0000
vt 0.1429 0.8571 0.0000
vt 0.1429 1.0000 0.0000
vt 0.2143 0.8571 0.0000
vt 0.2143 1.0000 0.0000
vt 0.2857 0.8571 0.0000
vt 0.2857 1.0000 0.0000
vt 0.3571 0.8571 0.0000
vt 0.3571 1.0000 0.0000
vt 0.4286 0.8571 0.0000
vt 0.4286 1.0000 0.0000
vt 0.5000 0.8571 0.0000
vt 0.5000 1.0000 0.0000
vt 0.5714 0.8571 0.0000
vt 0.5714 1.0000 0.0000
vt 0.6429 0.8571 0.0000
vt 0.6429 1.0000 0.0000
vt 0.7143 0.8571 0.0000
vt 0.7143 1.0000 0.0000
vt 0.7857 0.8571 0.0000
vt 0.7857 1.0000 0.0000
vt 0.8571 0.8571 0.0000
vt 0.8571 1.0000 0.0000
vt 0.9286 0.8571 0.0000
vt 0.9286 1.0000 0.0000
vt 1.0000 0.8571 0.0000
vt 0.0000 0.7143 0.0000
vt 0.0714 0.7143 0.0000
vt 0.1429 0.7143 0.0000
vt 0.2143 0.7143 0.0000
vt 0.2857 0.7143 0.0000
vt 0.3571 0.7143 0.0000
vt 0.4286 0.7143 0.0000
vt 0.5000 0.7143 0.0000
vt 0.5714 0.7143 0.0000
vt 0.6429 0.7143 0.0000
vt 0.7143 0.7143 0.0000
vt 0.7857 0.7143 0.0000
vt 0.8571 0.7143 0.0000
vt 0.9286 0.7143 0.0000
vt 1.0000 0.7143 0.0000
vt 0.0000 0.5714 0.0000
vt 0.0714 0.5714 0.0000
vt 0.1429 0.5714 0.0000
vt 0.2143 0.5714 0.0000
vt 0.2857 0.5714 0.0000
vt 0.3571 0.5714 0.0000
vt 0.4286 0.5714 0.0000
vt 0.5000 0.5714 0.0000
vt 0.5714 0.5714 0.0000
vt 0.6429 0.5714 0.0000
vt 0.7143 0.5714 0.0000
vt 0.7857 0.5714 0.0000
vt 0.8571 0.5714 0.0000
vt 0.9286 0.5714 0.0000
vt 1.0000 0.5714 0.0000
vt 0.0000 0.4286 0.0000
vt 0.0714 0.4286 0.0000
vt 0.1429 0.4286 0.0000
vt 0.2143 0.4286 0.0000
vt 0.2857 0.4286 0.0000
vt 0.3571 0.4286 0.0000
vt 0.4286 0.4286 0.0000
vt 0.5000 0.4286 0.0000
vt 0.5714 0.4286 0.0000
vt 0.6429 0.4286 0.0000
vt 0.7143 0.4286 0.0000
vt 0.7857 0.4286 0.0000
vt 0.8571 0.4286 0.0000
vt 0.9286 0.4286 0.0000
vt 1.0000 0.4286 0.0000
vt 0.0000 0.2857 0.0000
vt 0.0714 0.2857 0.0000
vt 0.1429 0.2857 0.0000
vt 0.2143 0.2857 0.0000
vt 0.2857 0.2857 0.0000
vt 0.3571 0.2857 0.0000
vt 0.4286 0.2857 0.0000
vt 0.5000 0.2857 0.0000
vt 0.5714 0.2857 0.0000
vt 0.6429 0.2857 0.0000
vt 0.7143 0.2857 0.0000
vt 0.7857 0.2857 0.0000
vt 0.8571 0.2857 0.0000
vt 0.9286 0.2857 0.0000
vt 1.0000 0.2857 0.0000
vt 0.0000 0.1429 0.0000
vt 0.0714 0.1429 0.0000
vt 0.1429 0.1429 0.0000
vt 0.2143 0.1429 0.0000
vt 0.2857 0.1429 0.0000
vt 0.3571 0.1429 0.0000
vt 0.4286 0.1429 0.0000
vt 0.5000 0.1429 0.0000
vt 0.5714 0.1429 0.0000
vt 0.6429 0.1429 0.0000
vt 0.7143 0.1429 0.0000
vt 0.7857 0.1429 0.0000
vt 0.8571 0.1429 0.0000
vt 0.9286 0.1429 0.0000
vt 1.0000 0.1429 0.0000
vt 0.0000 0.0000 0.0000
vt 0.0714 0.0000 0.0000
vt 0.1429 0.0000 0.0000
vt 0.2143 0.0000 0.0000
vt 0.2857 0.0000 0.0000
vt 0.3571 0.0000 0.0000
vt 0.4286 0.0000 0.0000
vt 0.5000 0.0000 0.0000
vt 0.5714 0.0000 0.0000
vt 0.6429 0.0000 0.0000
vt 0.7143 0.0000 0.0000
vt 0.7857 0.0000 0.0000
vt 0.8571 0.0000 0.0000
vt 0.9286 0.0000 0.0000

f 1/1/1 2/2/1 3/3/1 
f 1/4/2 3/3/2 4/5/2 
f 1/6/3 4/5/3 5/7/3 
f 1/8/4 5/7/4 6/9/4 
f 1/10/5 6/9/5 7/11/5 
f 1/12/6 7/11/6 8/13/6 
f 1/14/7 8/13/7 9/15/7 
f 1/16/8 9/15/8 10/17/8 
f 1/18/9 10/17/9 11/19/9 
f 1/20/10 11/19/10 12/21/10 
f 1/22/11 12/21/11 13/23/11 
f 1/24/12 13/23/12 14/25/12 
f 1/26/13 14/25/13 15/27/13 
f 1/28/14 15/27/14 2/29/14 
f 2/2/15 16/30/15 17/31/15 
f 2/2/15 17/31/15 3/3/15 
f 3/3/16 17/31/16 18/32/16 
f 3/3/16 18/32/16 4/5/16 
f 4/5/17 18/32/17 19/33/17 
f 4/5/17 19/33/17 5/7/17 
f 5/7/18 19/33/18 20/34/18 
f 5/7/18 20/34/18 6/9/18 
f 6/9/19 20/34/19 21/35/19 
f 6/9/19 21/35/19 7/11/19 
f 7/11/20 21/35/20 22/36/20 
f 7/11/20 22/36/20 8/13/20 
f 8/13/21 22/36/21 23/37/21 
f 8/13/21 23/37/21 9/15/21 
f 9/15/22 23/37/22 24/38/22 
f 9/15/22 24/38/22 10/17/22 
f 10/17/23 24/38/23 25/39/23 
f 10/17/23 25/39/23 11/19/23 
f 11/19/24 25/39/24 26/40/24 
f 11/19/24 26/40/24 12/21/24 
f 12/21/25 26/40/25 27/41/25 
f 12/21/25 27/41/25 13/23/25 
f 13/23/26 27/41/26 28/42/26 
f 13/23/26 28/42/26 14/25/26 
f 14/25/27 28/42/27 29/43/27 
f 14/25/27 29/43/27 15/27/27 
f 15/27/28 29/43/28 16/44/28 
f 15/27/28 16/44/28 2/29/28 
f 16/30/29 30/45/29 31/46/29 
f 16/30/29 31/46/29 17/31/29 
f 17/31/30 31/46/30 32/47/30 
f 17/31/30 32/47/30 18/32/30 
f 18/32/31 32/47/31 33/48/31 
f 18/32/31 33/48/31 19/33/31 
f 19/33/32 33/48/32 34/49/32 
f 19/33/32 34/49/32 20/34/32 
f 20/34/33 34/49/33 35/50/33 
f 20/34/33 35/50/33 21/35/33 
f 21/35/34 35/50/34 36/51/34 
f 21/35/34 36/51/34 22/36/34 
f 22/36/35 36/51/35 37/52/35 
f 22/36/35 37/52/35 23/37/35 
f 23/37/36 37/52/36 38/53/36 
f 23/37/36 38/53/36 24/38/36 
f 24/38/37 38/53/37 39/54/37 
f 24/38/37 39/54/37 25/39/37 
f 25/39/38 39/54/38 40/55/38 
f 25/39/39 40/55/39 26/40/39 
f 26/40/40 40/55/40 41/56/40 
f 26/40/40 41/56/40 27/41/40 
f 27/41/41 41/56/41 42/57/41 
f 27/41/41 42/57/41 28/42/41 
f 28/42/42 42/57/42 43/58/42 
f 28/42/42 43/58/42 29/43/42 
f 29/43/43 43/58/43 30/59/43 
f 29/43/43 30/59/43 16/44/43 
f 30/45/44 44/60/44 45/61/44 
f 30/45/44 45/61/44 31/46/44 
f 31/46/45 45/61/45 46/62/45 
f 31/46/45 46/62/45 32/47/45 
f 32/47/46 46/62/46 47/63/46 
f 32/47/46 47/63/46 33/48/46 
f 33/48/47 47/63/47 48/64/47 
f 33/48/47 48/64/47 34/49/47 
f 34/49/48 48/64/48 49/65/48 
f 34/49/48 49/65/48 35/50/48 
f 35/50/49 49/65/49 50/66/49 
f 35/50/49 50/66/49 36/51/49 
f 36/51/50 50/66/50 51/67/50 
f 36/51/50 51/67/50 37/52/50 
f 37/52/51 51/67/51 52/68/51 
f 37/52/51 52/68/51 38/53/51 
f 38/53/52 52/68/52 53/69/52 
f 38/53/52 53/69/52 39/54/52 
f 39/54/53 53/69/53 54/70/53 
f 39/54/53 54/70/53 40/55/53 
f 40/55/54 54/70/54 55/71/54 
f 40/55/54 55/71/54 41/56/54 
f 41/56/55 55/71/55 56/72/55 
f 41/56/55 56/72/55 42/57/55 
f 42/57/56 56/72/56 57/73/56 
f 42/57/56 57/73/56 43/58/56 
f 43/58/57 57/73/57 44/74/57 
f 43/58/57 44/74/57 30/59/57 
f 44/60/58 58/75/58 59/76/58 
f 44/60/58 59/76/58 45/61/58 
f 45/61/59 59/76/59 60/77/59 
f 45/61/59 60/77/59 46/62/59 
f 46/62/60 60/77/60 61/78/60 
f 46/62/60 61/78/60 47/63/60 
f 47/63/61 61/78/61 62/79/61 
f 47/63/61 62/79/61 48/64/61 
f 48/64/62 62/79/62 63/80/62 
f 48/64/62 63/80/62 49/65/62 
f 49/65/63 63/80/63 64/81/63 
f 49/65/63 64/81/63 50/66/63 
f 50/66/64 64/81/64 65/82/64 
f 50/66/64 65/82/64 51/67/64 
f 51/67/65 65/82/65 66/83/65 
f 51/67/65 66/83/65 52/68/65 
f 52/68/66 66/83/66 67/84/66 
f 52/68/66 67/84/66 53/69/66 
f 53/69/67 67/84/67 68/85/67 
f 53/69/67 68/85/67 54/70/67 
f 54/70/68 68/85/68 69/86/68 
f 54/70/68 69/86/68 55/71/68 
f 55/71/69 69/86/69 70/87/69 
f 55/71/69 70/87/69 56/72/69 
f 56/72/70 70/87/70 71/88/70 
f 56/72/70 71/88/70 57/73/70 
f 57/73/71 71/88/71 58/89/71 
f 57/73/71 58/89/71 44/74/71 
f 58/75/72 72/90/72 73/91/72 
f 58/75/72 73/91/72 59/76/72 
f 59/76/73 73/91/73 74/92/73 
f 59/76/73 74/92/73 60/77/73 
f 60/77/74 74/92/74 75/93/74 
f 60/77/74 75/93/74 61/78/74 
f 61/78/75 75/93/75 76/94/75 
f 61/78/75 76/94/75 62/79/75 
f 62/79/76 76/94/76 77/95/76 
f 62/79/76 77/95/76 63/80/76 
f 63/80/77 77/95/77 78/96/77 
f 63/80/77 78/96/77 64/81/77 
f 64/81/78 78/96/78 79/97/78 
f 64/81/78 79/97/78 65/82/78 
f 65/82/79 79/97/79 80/98/79 
f 65/82/79 80/98/79 66/83/79 
f 66/83/80 80/98/80 81/99/80 
f 66/83/80 81/99/80 67/84/80 
f 67/84/81 81/99/81 82/100/81 
f 67/84/81 82/100/81 68/85/81 
f 68/85/82 82/100/82 83/101/82 
f 68/85/82 83/101/82 69/86/82 
f 69/86/83 83/101/83 84/102/83 
f 69/86/83 84/102/83 70/87/83 
f 70/87/84 84/102/84 85/103/84 
f 70/87/84 85/103/84 71/88/84 
f 71/88/85 85/103/85 72/104/85 
f 71/88/85 72/104/85 58/89/85 
f 86/105/86 73/91/86 72/90/86 
f 86/106/87 74/92/87 73/91/87 
f 86/107/88 75/93/88 74/92/88 
f 86/108/89 76/94/89 75/93/89 
f 86/109/90 77/95/90 76/94/90 
f 86/110/91 78/96/91 77/95/91 
f 86/111/92 79/97/92 78/96/92 
f 86/112/93 80/98/93 79/97/93 
f 86/113/94 81/99/94 80/98/94 
f 86/114/95 82/100/95 81/99/95 
f 86/115/96 83/101/96 82/100/96 
f 86/116/97 84/102/97 83/101/97 
f 86/117/98 85/103/98 84/102/98 
f 86/118/99 72/104/99 85/103/99 