vertices
86
normals
99
textures
118
faces
168

v  0.0000 0.0000 20.0000
v  -0.0000 8.6777 18.0194
v  -3.7651 7.8183 18.0194
v  -6.7845 5.4104 18.0194
v  -8.4601 1.9310 18.0194
v  -8.4601 -1.9310 18.0194
v  -6.7845 -5.4104 18.0194
v  -3.7651 -7.8183 18.0194
v  0.0000 -8.6777 18.0194
v  3.7651 -7.8183 18.0194
v  6.7845 -5.4104 18.0194
v  8.4601 -1.9310 18.0194
v  8.4601 1.9310 18.0194
v  6.7845 5.4104 18.0194
v  3.7651 7.8183 18.0194
v  -6.7845 14.0881 12.4698
v  -0.0000 15.6366 12.4698
v  -12.2252 9.7493 12.4698
v  -15.2446 3.4795 12.4698
v  -15.2446 -3.4795 12.4698
v  -12.2252 -9.7493 12.4698
v  -6.7845 -14.0881 12.4698
v  0.0000 -15.6366 12.4698
v  6.7845 -14.0881 12.4698
v  12.2252 -9.7493 12.4698
v  15.2446 -3.4795 12.4698
v  15.2446 3.4795 12.4698
v  12.2252 9.7493 12.4698
v  6.7845 14.0881 12.4698
v  -8.4601 17.5676 4.4504
v  -0.0000 19.4986 4.4504
v  -15.2446 12.1572 4.4504
v  -19.0097 4.3388 4.4504
v  -19.0097 -4.3388 4.4504
v  -15.2446 -12.1572 4.4504
v  -8.4601 -17.5676 4.4504
v  0.0000 -19.4986 4.4504
v  8.4601 -17.5676 4.4504
v  15.2446 -12.1571 4.4504
v  19.0097 -4.3388 4.4504
v  19.0097 4.3389 4.4504
v  15.2446 12.1572 4.4504
v  8.4601 17.5676 4.4504
v  -8.4601 17.5676 -4.4504
v  -0.0000 19.4986 -4.4504
v  -15.2446 12.1572 -4.4504
v  -19.0097 4.3388 -4.4504
v  -19.0097 -4.3388 -4.4504
v  -15.2446 -12.1572 -4.4504
v  -8.4601 -17.5676 -4.4504
v  0.0000 -19.4986 -4.4504
v  8.4601 -17.5676 -4.4504
v  15.2446 -12.1571 -4.4504
v  19.0097 -4.3388 -4.4504
v  19.0097 4.3389 -4.4504
v  15.2446 12.1572 -4.4504
v  8.4601 17.5676 -4.4504
v  -6.7845 14.0881 -12.4698
v  -0.0000 15.6366 -12.4698
v  -12.2252 9.7493 -12.4698
v  -15.2446 3.4795 -12.4698
v  -15.2446 -3.4795 -12.4698
v  -12.2252 -9.7493 -12.4698
v  -6.7845 -14.0881 -12.4698
v  0.0000 -15.6366 -12.4698
v  6.7845 -14.0881 -12.4698
v  12.2252 -9.7493 -12.4698
v  15.2446 -3.4795 -12.4698
v  15.2446 3.4795 -12.4698
v  12.2252 9.7493 -12.4698
v  6.7845 14.0881 -12.4698
v  -3.7651 7.8183 -18.0194
v  -0.0000 8.6777 -18.0194
v  -6.7845 5.4104 -18.0194
v  -8.4601 1.9310 -18.0194
v  -8.4601 -1.9310 -18.0194
v  -6.7845 -5.4104 -18.0194
v  -3.7651 -7.8183 -18.0194
v  0.0000 -8.6777 -18.0194
v  3.7651 -7.8183 -18.0194
v  6.7845 -5.4104 -18.0194
v  8.4601 -1.9310 -18.0194
v  8.4601 1.9310 -18.0194
v  6.7845 5.4104 -18.0194
v  3.7651 7.8183 -18.0194
v  0.0000 0.0000 -20.0000

vn -0.0507 0.2222 0.9737
vn -0.1421 0.1782 0.9737
vn -0.2054 0.0989 0.9737
vn -0.2279 0.0000 0.9737
vn -0.2054 -0.0989 0.9737
vn -0.1421 -0.1782 0.9737
vn -0.0507 -0.2222 0.9737
vn 0.0507 -0.2222 0.9737
vn 0.1421 -0.1782 0.9737
vn 0.2054 -0.0989 0.9737
vn 0.2279 0.0000 0.9737
vn 0.2054 0.0989 0.9737
vn 0.1421 0.1782 0.9737
vn 0.0507 0.2222 0.9737
vn -0.1409 0.6173 0.7740
vn -0.3948 0.4950 0.7740
vn -0.5704 0.2747 0.7740
vn -0.6331 0.0000 0.7740
vn -0.5704 -0.2747 0.7740
vn -0.3948 -0.4950 0.7740
vn -0.1409 -0.6173 0.7740
vn 0.1409 -0.6173 0.7740
vn 0.3948 -0.4950 0.7740
vn 0.5704 -0.2747 0.7740
vn 0.6331 0.0000 0.7740
vn 0.5704 0.2747 0.7740
vn 0.3948 0.4950 0.7740
vn 0.1409 0.6173 0.7740
vn -0.2014 0.8825 0.4250
vn -0.5644 0.7077 0.4250
vn -0.8156 0.3928 0.4250
vn -0.9052 0.0000 0.4250
vn -0.8156 -0.3928 0.4250
vn -0.5644 -0.7077 0.4250
vn -0.2014 -0.8825 0.4250
vn 0.2014 -0.8825 0.4250
vn 0.5644 -0.7077 0.4250
vn 0.8156 -0.3928 0.4250
vn 0.9052 0.0000 0.4250
vn 0.8156 0.3928 0.4250
vn 0.5644 0.7077 0.4250
vn 0.2014 0.8825 0.4250
vn -0.2225 0.9749 0.0000
vn -0.6235 0.7818 0.0000
vn -0.9010 0.4339 0.0000
vn -1.0000 0.0000 0.0000
vn -0.9010 -0.4339 0.0000
vn -0.6235 -0.7818 0.0000
vn -0.2225 -0.9749 0.0000
vn 0.2225 -0.9749 0.0000
vn 0.6235 -0.7818 0.0000
vn 0.9010 -0.4339 0.0000
vn 1.0000 0.0000 0.0000
vn 0.9010 0.4339 0.0000
vn 0.6235 0.7818 0.0000
vn 0.2225 0.9749 0.0000
vn -0.2014 0.8825 -0.4250
vn -0.5644 0.7077 -0.4250
vn -0.8156 0.3928 -0.4250
vn -0.9052 0.0000 -0.4250
vn -0.8156 -0.3928 -0.4250
vn -0.5644 -0.7077 -0.4250
vn -0.2014 -0.8825 -0.4250
vn 0.2014 -0.8825 -0.4250
vn 0.5644 -0.7077 -0.4250
vn 0.8156 -0.3928 -0.4250
vn 0.9052 0.0000 -0.4250
vn 0.8156 0.3928 -0.4250
vn 0.5644 0.7077 -0.4250
vn 0.2014 0.8825 -0.4250
vn -0.1409 0.6173 -0.7740
vn -0.3948 0.4950 -0.7740
vn -0.5704 0.2747 -0.7740
vn -0.6331 0.0000 -0.7740
vn -0.5704 -0.2747 -0.7740
vn -0.3948 -0.4950 -0.7740
vn -0.1409 -0.6173 -0.7740
vn 0.1409 -0.6173 -0.7740
vn 0.3948 -0.4950 -0.7740
vn 0.5704 -0.2747 -0.7740
vn 0.6331 0.0000 -0.7740
vn 0.5704 0.2747 -0.7740
vn 0.3948 0.4950 -0.7740
vn 0.1409 0.6173 -0.7740
vn -0.0507 0.2222 -0.9737
vn -0.1421 0.1782 -0.9737
vn -0.2054 0.0989 -0.9737
vn -0.2279 0.0000 -0.9737
vn -0.2054 -0.0989 -0.9737
vn -0.1421 -0.1782 -0.9737
vn -0.0507 -0.2222 -0.9737
vn 0.0507 -0.2222 -0.9737
vn 0.1421 -0.1782 -0.9737
vn 0.2054 -0.0989 -0.9737
vn 0.2279 0.0000 -0.9737
vn 0.2054 0.0989 -0.9737
vn 0.1421 0.1782 -0.9737
vn 0.0507 0.2222 -0.9737

vt 0.0000 1.0000 0.0000
vt 0.0000 0.8571 0.0000
vt 0.0714 0.8571 0.0000
vt 0.0714 1.0000 0.0000
vt 0.1429 0.8571 0.0000
vt 0.1429 1.0000 0.0000
vt 0.2143 0.8571 0.0000
vt 0.2143 1.0000 0.0000
vt 0.2857 0.8571 0.0000
vt 0.2857 1.0000 0.0000
vt 0.3571 0.8571 0.0000
vt 0.3571 1.0000 0.0000
vt 0.4286 0.8571 0.0000
vt 0.4286 1.0000 0.0000
vt 0.5000 0.8571 0.0000
vt 0.5000 1.0000 0.0000
vt 0.5714 0.8571 0.0000
vt 0.5714 1.0000 0.0000
vt 0.6429 0.8571 0.0000
vt 0.6429 1.0000 0.0000
vt 0.7143 0.8571 0.0000
vt 0.7143 1.0000 0.0000
vt 0.7857 0.8571 0.0000
vt 0.7857 1.0000 0.0000
vt 0.8571 0.8571 0.0000
vt 0.8571 1.0000 0.0000
vt 0.9286 0.8571 0.0000
vt 0.9286 1.0000 0.0000
vt 1.0000 0.8571 0.0000
vt 0.0714 0.7143 0.0000
vt 0.0000 0.7143 0.0000
vt 0.1429 0.7143 0.0000
vt 0.2143 0.7143 0.0000
vt 0.2857 0.7143 0.0000
vt 0.3571 0.7143 0.0000
vt 0.4286 0.7143 0.0000
vt 0.5000 0.7143 0.0000
vt 0.5714 0.7143 0.0000
vt 0.6429 0.7143 0.0000
vt 0.7143 0.7143 0.0000
vt 0.7857 0.7143 0.0000
vt 0.8571 0.7143 0.0000
vt 0.9286 0.7143 0.0000
vt 1.0000 0.7143 0.0000
vt 0.0714 0.5714 0.0000
vt 0.0000 0.5714 0.0000
vt 0.1429 0.5714 0.0000
vt 0.2143 0.5714 0.0000
vt 0.2857 0.5714 0.0000
vt 0.3571 0.5714 0.0000
vt 0.4286 0.5714 0.0000
vt 0.5000 0.5714 0.0000
vt 0.5714 0.5714 0.0000
vt 0.6429 0.5714 0.0000
vt 0.7143 0.5714 0.0000
vt 0.7857 0.5714 0.0000
vt 0.8571 0.5714 0.0000
vt 0.9286 0.5714 0.0000
vt 1.0000 0.5714 0.0000
vt 0.0714 0.4286 0.0000
vt 0.0000 0.4286 0.0000
vt 0.1429 0.4286 0.0000
vt 0.2143 0.4286 0.0000
vt 0.2857 0.4286 0.0000
vt 0.3571 0.4286 0.0000
vt 0.4286 0.4286 0.0000
vt 0.5000 0.4286 0.0000
vt 0.5714 0.4286 0.0000
vt 0.6429 0.4286 0.0000
vt 0.7143 0.4286 0.0000
vt 0.7857 0.4286 0.0000
vt 0.8571 0.4286 0.0000
vt 0.9286 0.4286 0.0000
vt 1.0000 0.4286 0.0000
vt 0.0714 0.2857 0.0000
vt 0.0000 0.2857 0.0000
vt 0.1429 0.2857 0.0000
vt 0.2143 0.2857 0.0000
vt 0.2857 0.2857 0.0000
vt 0.3571 0.2857 0.0000
vt 0.4286 0.2857 0.0000
vt 0.5000 0.2857 0.0000
vt 0.5714 0.2857 0.0000
vt 0.6429 0.2857 0.0000
vt 0.7143 0.2857 0.0000
vt 0.7857 0.2857 0.0000
vt 0.8571 0.2857 0.0000
vt 0.9286 0.2857 0.0000
vt 1.0000 0.2857 0.0000
vt 0.0714 0.1429 0.0000
vt 0.0000 0.1429 0.0000
vt 0.1429 0.1429 0.0000
vt 0.2143 0.1429 0.0000
vt 0.2857 0.1429 0.0000
vt 0.3571 0.1429 0.0000
vt 0.4286 0.1429 0.0000
vt 0.5000 0.1429 0.0000
vt 0.5714 0.1429 0.0000
vt 0.6429 0.1429 0.0000
vt 0.7143 0.1429 0.0000
vt 0.7857 0.1429 0.0000
vt 0.8571 0.1429 0.0000
vt 0.9286 0.1429 0.0000
vt 1.0000 0.1429 0.0000
vt 0.0000 0.0000 0.0000
vt 0.0714 0.0000 0.0000
vt 0.1429 0.0000 0.0000
vt 0.2143 0.0000 0.0000
vt 0.2857 0.0000 0.0000
vt 0.3571 0.0000 0.0000
vt 0.4286 0.0000 0.0000
vt 0.5000 0.0000 0.0000
vt 0.5714 0.0000 0.0000
vt 0.6429 0.0000 0.0000
vt 0.7143 0.0000 0.0000
vt 0.7857 0.0000 0.0000
vt 0.8571 0.0000 0.0000
vt 0.9286 0.0000 0.0000

o Sphere001
g Sphere001
f 1/1/1 2/2/1 3/3/1 
f 1/4/2 3/3/2 4/5/2 
f 1/6/3 4/5/3 5/7/3 
f 1/8/4 5/7/4 6/9/4 
f 1/10/5 6/9/5 7/11/5 
f 1/12/6 7/11/6 8/13/6 
f 1/14/7 8/13/7 9/15/7 
f 1/16/8 9/15/8 10/17/8 
f 1/18/9 10/17/9 11/19/9 
f 1/20/10 11/19/10 12/21/10 
f 1/22/11 12/21/11 13/23/11 
f 1/24/12 13/23/12 14/25/12 
f 1/26/13 14/25/13 15/27/13 
f 1/28/14 15/27/14 2/29/14 
f 16/30/15 3/3/15 2/2/15 
f 2/2/15 17/31/15 16/30/15 
f 18/32/16 4/5/16 3/3/16 
f 3/3/16 16/30/16 18/32/16 
f 19/33/17 5/7/17 4/5/17 
f 4/5/17 18/32/17 19/33/17 
f 20/34/18 6/9/18 5/7/18 
f 5/7/18 19/33/18 20/34/18 
f 21/35/19 7/11/19 6/9/19 
f 6/9/19 20/34/19 21/35/19 
f 22/36/20 8/13/20 7/11/20 
f 7/11/20 21/35/20 22/36/20 
f 23/37/21 9/15/21 8/13/21 
f 8/13/21 22/36/21 23/37/21 
f 24/38/22 10/17/22 9/15/22 
f 9/15/22 23/37/22 24/38/22 
f 25/39/23 11/19/23 10/17/23 
f 10/17/23 24/38/23 25/39/23 
f 26/40/24 12/21/24 11/19/24 
f 11/19/24 25/39/24 26/40/24 
f 27/41/25 13/23/25 12/21/25 
f 12/21/25 26/40/25 27/41/25 
f 28/42/26 14/25/26 13/23/26 
f 13/23/26 27/41/26 28/42/26 
f 29/43/27 15/27/27 14/25/27 
f 14/25/27 28/42/27 29/43/27 
f 17/44/28 2/29/28 15/27/28 
f 15/27/28 29/43/28 17/44/28 
f 30/45/29 16/30/29 17/31/29 
f 17/31/29 31/46/29 30/45/29 
f 32/47/30 18/32/30 16/30/30 
f 16/30/30 30/45/30 32/47/30 
f 33/48/31 19/33/31 18/32/31 
f 18/32/31 32/47/31 33/48/31 
f 34/49/32 20/34/32 19/33/32 
f 19/33/32 33/48/32 34/49/32 
f 35/50/33 21/35/33 20/34/33 
f 20/34/33 34/49/33 35/50/33 
f 36/51/34 22/36/34 21/35/34 
f 21/35/34 35/50/34 36/51/34 
f 37/52/35 23/37/35 22/36/35 
f 22/36/35 36/51/35 37/52/35 
f 38/53/36 24/38/36 23/37/36 
f 23/37/36 37/52/36 38/53/36 
f 39/54/37 25/39/37 24/38/37 
f 24/38/37 38/53/37 39/54/37 
f 40/55/38 26/40/38 25/39/38 
f 25/39/38 39/54/38 40/55/38 
f 41/56/39 27/41/39 26/40/39 
f 26/40/39 40/55/39 41/56/39 
f 42/57/40 28/42/40 27/41/40 
f 27/41/40 41/56/40 42/57/40 
f 43/58/41 29/43/41 28/42/41 
f 28/42/41 42/57/41 43/58/41 
f 31/59/42 17/44/42 29/43/42 
f 29/43/42 43/58/42 31/59/42 
f 44/60/43 30/45/43 31/46/43 
f 31/46/43 45/61/43 44/60/43 
f 46/62/44 32/47/44 30/45/44 
f 30/45/44 44/60/44 46/62/44 
f 47/63/45 33/48/45 32/47/45 
f 32/47/45 46/62/45 47/63/45 
f 48/64/46 34/49/46 33/48/46 
f 33/48/46 47/63/46 48/64/46 
f 49/65/47 35/50/47 34/49/47 
f 34/49/47 48/64/47 49/65/47 
f 50/66/48 36/51/48 35/50/48 
f 35/50/48 49/65/48 50/66/48 
f 51/67/49 37/52/49 36/51/49 
f 36/51/49 50/66/49 51/67/49 
f 52/68/50 38/53/50 37/52/50 
f 37/52/50 51/67/50 52/68/50 
f 53/69/51 39/54/51 38/53/51 
f 38/53/51 52/68/51 53/69/51 
f 54/70/52 40/55/52 39/54/52 
f 39/54/52 53/69/52 54/70/52 
f 55/71/53 41/56/53 40/55/53 
f 40/55/53 54/70/53 55/71/53 
f 56/72/54 42/57/54 41/56/54 
f 41/56/54 55/71/54 56/72/54 
f 57/73/55 43/58/55 42/57/55 
f 42/57/55 56/72/55 57/73/55 
f 45/74/56 31/59/56 43/58/56 
f 43/58/56 57/73/56 45/74/56 
f 58/75/57 44/60/57 45/61/57 
f 45/61/57 59/76/57 58/75/57 
f 60/77/58 46/62/58 44/60/58 
f 44/60/58 58/75/58 60/77/58 
f 61/78/59 47/63/59 46/62/59 
f 46/62/59 60/77/59 61/78/59 
f 62/79/60 48/64/60 47/63/60 
f 47/63/60 61/78/60 62/79/60 
f 63/80/61 49/65/61 48/64/61 
f 48/64/61 62/79/61 63/80/61 
f 64/81/62 50/66/62 49/65/62 
f 49/65/62 63/80/62 64/81/62 
f 65/82/63 51/67/63 50/66/63 
f 50/66/63 64/81/63 65/82/63 
f 66/83/64 52/68/64 51/67/64 
f 51/67/64 65/82/64 66/83/64 
f 67/84/65 53/69/65 52/68/65 
f 52/68/65 66/83/65 67/84/65 
f 68/85/66 54/70/66 53/69/66 
f 53/69/66 67/84/66 68/85/66 
f 69/86/67 55/71/67 54/70/67 
f 54/70/67 68/85/67 69/86/67 
f 70/87/68 56/72/68 55/71/68 
f 55/71/68 69/86/68 70/87/68 
f 71/88/69 57/73/69 56/72/69 
f 56/72/69 70/87/69 71/88/69 
f 59/89/70 45/74/70 57/73/70 
f 57/73/70 71/88/70 59/89/70 
f 72/90/71 58/75/71 59/76/71 
f 59/76/71 73/91/71 72/90/71 
f 74/92/72 60/77/72 58/75/72 
f 58/75/72 72/90/72 74/92/72 
f 75/93/73 61/78/73 60/77/73 
f 60/77/73 74/92/73 75/93/73 
f 76/94/74 62/79/74 61/78/74 
f 61/78/74 75/93/74 76/94/74 
f 77/95/75 63/80/75 62/79/75 
f 62/79/75 76/94/75 77/95/75 
f 78/96/76 64/81/76 63/80/76 
f 63/80/76 77/95/76 78/96/76 
f 79/97/77 65/82/77 64/81/77 
f 64/81/77 78/96/77 79/97/77 
f 80/98/78 66/83/78 65/82/78 
f 65/82/78 79/97/78 80/98/78 
f 81/99/79 67/84/79 66/83/79 
f 66/83/79 80/98/79 81/99/79 
f 82/100/80 68/85/80 67/84/80 
f 67/84/80 81/99/80 82/100/80 
f 83/101/81 69/86/81 68/85/81 
f 68/85/81 82/100/81 83/101/81 
f 84/102/82 70/87/82 69/86/82 
f 69/86/82 83/101/82 84/102/82 
f 85/103/83 71/88/83 70/87/83 
f 70/87/83 84/102/83 85/103/83 
f 73/104/84 59/89/84 71/88/84 
f 71/88/84 85/103/84 73/104/84 
f 86/105/85 72/90/85 73/91/85 
f 86/106/86 74/92/86 72/90/86 
f 86/107/87 75/93/87 74/92/87 
f 86/108/88 76/94/88 75/93/88 
f 86/109/89 77/95/89 76/94/89 
f 86/110/90 78/96/90 77/95/90 
f 86/111/91 79/97/91 78/96/91 
f 86/112/92 80/98/92 79/97/92 
f 86/113/93 81/99/93 80/98/93 
f 86/114/94 82/100/94 81/99/94 
f 86/115/95 83/101/95 82/100/95 
f 86/116/96 84/102/96 83/101/96 
f 86/117/97 85/103/97 84/102/97 
f 86/118/98 73/104/98 85/103/98 

